<?xml version="1.0" encoding="utf-8"?>
<!-- Generator: Adobe Illustrator 22.1.0, SVG Export Plug-In . SVG Version: 6.00 Build 0)  -->
<svg version="1.1" xmlns="http://www.w3.org/2000/svg" xmlns:xlink="http://www.w3.org/1999/xlink" x="0px" y="0px"
	 viewBox="0 0 758 500" style="enable-background:new 0 0 758 500;" xml:space="preserve">
<style type="text/css">
	.st0{fill:#F07575;}
	.st1{fill:#EDE576;}
	.st2{fill:#93D8E4;}
	.st3{font-family:'CenturyGothic';}
	.st4{font-size:45.765px;}
</style>
<g id="Слой_1">
</g>
<g id="Слой_2">
	<g>
		<path class="st0" d="M331,241.7c-6.8,0-14.2,0-22.4-3c-10.4-3-17.9-15.1-19.4-21.6c-1.5-6.7-1.5-14.1-1.5-18.6
			c0-2.2,0-9.4,3.7-16.4c5.5-10.2,10.9-12.7,17.9-16.4c0,0-0.1,0,0,0c6.8-1.4,11.4-2.1,17.8-2.2c17.2-0.3,31.6-14.5,31.4-31.7
			c-0.2-16.7-13.1-29.5-29.8-29.5c-16.9,0-29.1,9.7-31.3,29.8c-0.6,5.2-0.7,11.2-2.2,16.4c-2.2,7.5-7.5,16.4-18.6,20.9
			c-6.7,2.7-17.2,3-20.1,3c-16.9,0-30.6,13.7-30.6,30.6s13.7,30.6,30.6,30.6c3,0,10.6-1,18.6,2.2c11.2,4.5,14.2,7.5,19.4,19.4
			c1.4,4.9,2.1,9.2,2.2,15.8c0.2,17,13.9,31,30.9,31.1c17.1,0.2,30.9-10.6,30.9-27.6C358.5,257.6,347.8,241.7,331,241.7z"/>
		<path class="st1" d="M437.2,129.5c0,6.8,0,14.2-3,22.4c-3,10.4-15.1,17.9-21.6,19.4c-6.7,1.5-13.7,1.1-18.3,1.1
			c-3.7,0-9.7,0.4-16.8-3.4c-10.2-5.5-12.7-10.9-16.4-17.9c-1.5-7.5-2.2-12.2-2.2-19.4c0-16.9-13.7-30.6-30.6-30.6
			c-16.9,0-30.6,13.7-30.6,30.6s9.7,29.1,29.8,31.3c5.2,0.6,11.2,0.7,16.4,2.2c7.5,2.2,16.4,7.5,20.9,18.6c2.7,6.7,3,17.2,3,20.1
			c0,16.9,13.7,30.6,30.6,30.6c16.9,0,30.6-13.7,30.6-30.6c0-3-1-10.6,2.2-18.6c4.5-11.2,7.5-14.2,19.4-19.4
			c5.2-1.5,9.7-2.2,17.1-2.2c16.9,0,29.8-14.4,29.8-31.3s-10.7-30.6-27.6-30.6C453.1,101.9,437.2,112.6,437.2,129.5z"/>
		<path class="st2" d="M507.2,201.1c0,6.8,0,14.2-3,22.4c-3,10.4-15.1,17.9-21.6,19.4c-6.7,1.5-13.8,1.1-18.3,1.1
			c-2.6,0-9.7,0.4-16.8-3.4c-10.2-5.5-12.7-10.9-16.4-17.9c-1.5-7.5-2.2-12.2-2.2-19.4c0-16.9-13.7-30.6-30.6-30.6
			c-16.9,0-30.6,13.7-30.6,30.6s9.7,29.1,29.8,31.3c5.2,0.6,11.2,0.7,16.4,2.2c7.5,2.2,16.4,7.5,20.9,18.6c2.7,6.7,3,17.2,3,20.1
			c0,16.9,13.7,30.6,30.6,30.6c16.9,0,30.6-13.7,30.6-30.6c0-3-1-10.6,2.2-18.6c4.5-11.2,7.5-14.2,19.4-19.4
			c5.2-1.5,9.7-2.2,17.1-2.2c16.9,0,29.8-14.4,29.8-31.3s-10.7-30.6-27.6-30.6C523.2,173.5,507.2,184.2,507.2,201.1z"/>
	</g>
	<g>
		<text transform="matrix(1 0 0 1 175.4946 379.1934)" class="st0 st3 st4">knowledge explorer</text>
	</g>
</g>
</svg>
